# xmcd
#
# Track frame offsets: 
#        150
#        24548
#        44330
#        63037
#        77229
#        97745
#        117911
#        129980
#        145827
#        168956
#        204765
#        222370
#        247966
#        266924
#        301411
#        318922
#
# Disc length: 4579 seconds
#
# Revision: 0
# Processed by: cddbd v1.5.2PL0 Copyright (c) Steve Scherf et al.
# Submitted via: ExactAudioCopy v0.99pb5
#
DISCID=d211e110
DTITLE=Gospelchor Lingenfeld - Black and White
DYEAR=2008
DGENRE=Gospel
TTITLE0=Bless the Lord
TTITLE1=Love is a wonderful thing
TTITLE2=walking in the light
TTITLE3=change the world
TTITLE4=bridge over troubled water
TTITLE5=chosen
TTITLE6=witness
TTITLE7=wishing you were somehow here again
TTITLE8=lean on me
TTITLE9=traditional gospel medley
TTITLE10=suspicious minds
TTITLE11=you´ve got a friend
TTITLE12=heaven helpus all
TTITLE13=with a little help from my friends
TTITLE14=put your hand in the hand
TTITLE15=jesus on the main line
EXTD=
EXTT0=
EXTT1=
EXTT2=
EXTT3=
EXTT4=
EXTT5=
EXTT6=
EXTT7=
EXTT8=
EXTT9=
EXTT10=
EXTT11=
EXTT12=
EXTT13=
EXTT14=
EXTT15=
PLAYORDER=
